PathFileType	4	(X/Y/Z)	Patient4_TMGait_0pt5_01_right_29.trc.trc
DataRate	CameraRate	NumFrames	NumMarkers	Units	OrigDataRate	OrigDataStartFrame	OrigNumFrames
72.916666666667	72.916666666667	7	33	mm	72.916666666667	1	       141
Frame#	Time	L.ASIS			Sacral			L.Shoulder			Chest			R.Shoulder			Neck			R.ASIS			R.Thigh.Superior			R.Thigh.Lateral			R.Thigh.Inferior			R.Patella			L.Thigh.Superior			L.Thigh.Lateral			L.Thigh.Inferior			L.Patella			L.Shank.Superior			L.Shank.Lateral			L.Shank.Inferior			R.Shank.Superior			R.Shank.Lateral			R.Shank.Inferior			R.Heel			R.Midfoot.Superior			R.Midfoot.Lateral			R.Toe			L.Heel			L.Midfoot.Lateral			L.Midfoot.Superior			L.Toe			L.Elbow			L.Wrist			R.Elbow			R.Wrist			
		X1	Y1	Z1	X2	Y2	Z2	X3	Y3	Z3	X4	Y4	Z4	X5	Y5	Z5	X6	Y6	Z6	X7	Y7	Z7	X8	Y8	Z8	X9	Y9	Z9	X10	Y10	Z10	X11	Y11	Z11	X12	Y12	Z12	X13	Y13	Z13	X14	Y14	Z14	X15	Y15	Z15	X16	Y16	Z16	X17	Y17	Z17	X18	Y18	Z18	X19	Y19	Z19	X20	Y20	Z20	X21	Y21	Z21	X22	Y22	Z22	X23	Y23	Z23	X24	Y24	Z24	X25	Y25	Z25	X26	Y26	Z26	X27	Y27	Z27	X28	Y28	Z28	X29	Y29	Z29	X30	Y30	Z30	X31	Y31	Z31	X32	Y32	Z32	X33	Y33	Z33	

1	38.050000000000	882.453850237582	963.740226253193	280.602812943596	684.398373504884	1005.608646650911	460.647527164061	838.463845902979	1439.510490744075	275.717668060939	959.522236710590	1364.886918106301	422.185858902090	892.256235720365	1433.578307867794	607.228632636693	857.623756251941	1495.544002415182	425.565913723539	921.328973499377	936.092726293255	551.003246228971	984.975609521016	750.348262212524	520.158254183610	935.159671830421	635.259226488498	595.411156112094	1014.973549734389	586.279966489349	510.857097806240	1022.196469986970	471.752768659944	530.698241058584	937.197968194108	752.744667371782	311.293389970165	846.000904540918	635.565547223844	259.780021432975	930.468868363364	557.761748071083	322.056682227689	930.734911273993	486.552462590615	335.254220627224	901.236378421908	414.177909963401	328.491634062575	809.035227161214	303.522538643738	276.620536357644	849.871680883826	191.833936978367	351.849655922311	937.708673786204	405.994487242802	542.735961091135	817.776449951086	380.201293514897	612.041765570322	785.276954376031	275.071340884506	563.983749952966	583.146767631456	259.204276090963	550.951614136609	728.555919458097	150.249616713667	577.920961245550	624.845466349944	180.074311148473	617.915832374678	757.452087554450	23.386929070823	596.628004396282	712.808801905077	38.605162910662	388.669421769147	789.348439501224	35.437034226064	310.329300839341	872.347458550621	95.942456017598	339.820933511239	1001.346838261265	40.991844555340	315.413958105043	750.147049245976	1104.622203859837	140.846965890150	888.315490545016	882.260171190437	111.077324762988	852.001800412642	1089.210939147504	724.775565082121	938.119527156274	842.225267763180	734.834918915643	
2	38.063714285714	882.134391257941	963.970690361518	280.135824705382	682.925189600377	1005.825965720796	458.634115391664	839.936670232538	1439.834465257681	275.016469941739	959.230723523139	1364.815885429173	422.652258316099	890.211926370926	1433.687482450716	606.891585275589	857.841572930679	1495.737954987935	424.968172525736	919.147420744496	936.737895011863	550.828500883108	986.992466413612	755.187317943500	519.170685151073	940.696866434730	639.207451809132	594.690235020851	1022.126267206344	592.704528840445	510.204983882623	1032.520927856257	477.996381054959	529.995537422090	934.772980036920	751.664666002341	310.396728334709	842.168988627013	635.564971515165	259.075942197122	925.478620211425	556.949360754223	321.682577597556	924.841895171421	485.905303519784	335.120745167781	895.269310413956	413.848615907775	328.183610873230	802.802035807649	303.426567647242	276.224577641855	842.996575517941	191.682786935749	351.689367079894	948.731974655871	410.798428893265	541.777081809999	828.216404342923	383.922989312909	609.740017829016	797.836195807817	278.048044815765	562.065651797130	595.537609216920	258.022728647275	546.631822777296	743.470661987866	153.265592335888	576.258374408303	638.475543277041	180.477043234924	614.614117690406	775.095970934082	26.778382549648	595.788372997377	705.447371502981	38.639315499485	388.557450806549	782.048983229754	35.416712084907	310.237080826048	865.063301705057	95.929388332174	339.699934463959	994.054212270575	40.935236668254	315.336031947670	752.418019569388	1105.806437309739	137.935940507900	893.082914928262	885.074769956619	109.455673666158	843.064531351180	1091.257177561234	725.626831020491	919.717941326226	842.564587522962	742.087154575592	
3	38.077428571429	881.824827382470	964.194635400052	279.738981905809	681.442051631650	1006.093367092674	456.653407836631	841.462616974818	1440.180074554767	274.332438252797	958.961629431355	1364.763708001038	423.145430018486	888.182313753675	1433.829427414118	606.566596629563	858.079585789042	1495.950452947957	424.392887405185	916.935919113146	937.418643581470	550.714472128486	988.905805728432	760.067710678974	518.273535466728	946.087943301442	643.183062918306	594.043127366514	1029.099845819549	599.148666568554	509.637990156432	1042.641448833708	484.309663632606	529.405991677702	932.325327443594	750.604519711896	309.666120946963	838.357710724605	635.579326988367	258.432058954474	920.478547383304	556.154319629654	321.397609510039	918.932660350719	485.272772087643	335.049762089823	889.298372946838	413.535435590275	327.925728428472	796.576812998150	303.347798724219	275.860720515243	836.138801250884	191.543211000829	351.547076540914	959.687419811177	415.575747586574	540.905360084372	838.641172437156	387.306832366845	607.498595383967	810.609568054198	280.645390870930	560.173889707249	608.210398444226	256.053424300630	542.332034254232	758.807802352830	155.753084087941	574.542256381725	652.526854257967	180.162885138480	611.320706725011	793.462225926224	29.783589485447	594.949829379796	698.120654617261	38.676871783905	388.443577601383	774.780842471203	35.399643458604	310.148486851281	857.811114868646	95.920560744728	339.582376840698	986.793716829173	40.879971920022	315.260248398022	754.694274477439	1107.008028729905	135.102429265356	897.803460724339	887.867641834914	107.967624773866	834.203339525331	1093.355612267118	726.479489254135	901.635661499979	843.061629359571	749.129795943513	
4	38.091142857143	881.538723044757	964.399629563650	279.474354770270	679.958609657641	1006.435833401052	454.752981857130	843.072198212928	1440.550129456297	273.695307724929	958.733784449402	1364.735025339323	423.693838430696	886.193626707536	1434.019002551096	606.277565002887	858.350440600944	1496.184980020748	423.872513771832	914.696677730562	938.147872250703	550.718784842605	990.594732965533	764.931998142719	517.553200547874	951.121194205624	647.130497982788	593.539231344847	1035.633263392369	605.507280915621	509.234252115469	1052.247671258949	490.656073705701	529.023153524458	929.854626704890	749.577537970228	309.229039821943	834.605625746008	635.613288671608	257.900101166709	915.490920286849	555.387953769448	321.271101685720	913.032747026625	484.665559908496	335.088180977824	883.354444377433	413.246151897701	327.758204890815	790.395633560680	303.296705960577	275.558290146801	829.342053560796	191.420819996544	351.439285888636	970.401143509319	420.242013039691	540.202390739426	849.009879838699	390.013781895593	605.425791585505	823.743565134731	282.538729977375	558.377527807357	621.478442818355	252.624762578975	538.170985848780	774.918280893723	157.320390938187	572.792273867634	667.417570668985	178.566376161496	608.131469849581	813.126939663798	32.201429309251	594.156709872145	690.883796586771	38.720448174907	388.328995582465	767.595860923188	35.388328008223	310.068094248638	850.643870594922	95.917551420997	339.473985848011	979.617352451425	40.826326092626	315.189779954985	756.977922056900	1108.217528055447	132.434403424184	902.414057674537	890.584952199127	106.754261237903	825.553217760179	1095.508291560706	727.317616802734	884.279016906703	843.806799805614	755.725667348262	
5	38.104857142857	881.286849951546	964.570109313913	279.392380196461	678.487075068539	1006.860385730814	452.973407642099	844.791597420361	1440.937898239459	273.132896920813	958.560486527694	1364.725061250081	424.325829663721	884.261424019394	1434.259897180465	606.048191276584	858.663036944111	1496.437269174827	423.435765300616	912.431987667509	938.925412882501	550.889188110533	991.959480495791	769.709401245699	517.081565860146	955.615988880045	650.982387752566	593.234089063722	1041.500453949610	611.663319019612	509.053878995267	1061.070509172097	496.984140358770	528.919347229574	927.358026452628	748.586957193144	309.178389246728	830.936678668850	635.664823413366	257.516701991542	910.524588138777	554.652470800319	321.352427690229	907.155386704653	484.088328298330	335.266389840875	877.451089841557	412.981696310438	327.708665426696	784.271860938805	303.278147004711	275.339139762207	822.622895372137	191.316087573148	351.378828201026	980.727660911830	424.717624144575	539.736406755684	859.322051391308	391.760325624718	603.627353146465	837.398985689495	283.478596069646	556.753975777537	635.686416870509	247.182751152735	534.287497673480	792.162119876821	157.703194319570	571.063376810019	683.583317684727	175.248533570933	605.161059344452	834.628782331609	33.950927589201	593.460598551433	683.758737276229	38.771985085454	388.214508812319	760.512913887853	35.384020341654	309.999737046224	843.581128683819	95.920379548745	339.380186198724	972.544129975755	40.774325671245	315.127104463390	759.279774642076	1109.419381246846	129.997230092796	906.876529385597	893.178609284485	105.936333771887	817.213915109760	1097.702072680737	728.121881649134	867.955577163634	844.846417946643	761.690751803101	
6	38.118571428571	881.077255344433	964.688822276875	279.525936462703	677.044398019242	1007.353305961467	451.347759736968	846.634759706196	1441.326001487797	272.670523451520	958.448053508630	1364.719425969596	425.066077510994	882.393405185167	1434.542394080977	605.901252906468	859.020775188108	1496.694473326366	423.106355686170	910.150305633661	939.735574819169	551.257894830050	992.927653886041	774.307487958075	516.908744325051	959.427768107214	654.654007824751	593.164352342141	1046.517321356100	617.481029161842	509.133348294005	1068.887983990946	503.215414417245	529.136699441984	924.837098011224	747.626857051266	309.559182075166	827.364434263000	635.724725339005	257.300057948427	905.583922025533	553.941623789999	321.664559533310	901.311192422395	483.539332675621	335.594710283433	871.594214300649	412.735952289215	327.789260751158	778.205826206279	303.290569792937	275.215876054826	815.980724443667	191.224143079414	351.373710480815	990.540648015526	428.925110952735	539.555523150653	869.599663297772	392.344932557557	602.201290871102	851.707176008049	283.319227898337	555.384478188956	651.156224764102	239.369292722208	530.835404100978	810.834858408013	156.799338462756	569.444553469575	701.405174273715	169.962790978417	602.540266892143	858.363544914378	35.090349938334	592.921157962044	676.743466143094	38.832463894040	388.100887696801	753.527574425112	35.386787708311	309.946222030767	836.618671475533	95.927484789751	339.305822995263	965.569487212520	40.723723976558	315.073895581772	761.614634688472	1110.589402081917	127.832361582215	911.173676828004	895.604863128399	105.603526220615	809.257151944577	1099.902450409276	728.869107255271	852.874271830316	846.171767288170	766.902063265132	
7	38.132285714286	880.916376248656	964.739199318958	279.887903942090	675.652672974544	1007.882410297345	449.901701742517	848.598485614181	1441.688118347829	272.331093263632	958.395796252733	1364.696237274334	425.933384137479	880.593119666917	1434.844223018941	605.858501567157	859.421211716210	1496.936456563565	422.903009330169	907.870112499650	940.548852928016	551.839377391789	993.454466770673	778.610377401252	517.060199759637	962.446009761618	658.043131023868	593.347319270814	1050.541635649920	622.806028709545	509.485772125749	1075.525322876940	509.241644404288	529.684324775565	922.302010889627	746.684045696583	310.365087353300	823.895879039637	635.777926485539	257.250660321713	900.675413921884	553.242955431672	322.203465266428	895.513945023295	483.010724998791	336.065143210625	865.789044156610	412.496816074187	327.997369030645	772.192785587664	303.326718335417	275.192122263947	809.406429069108	191.135805246952	351.427007877520	999.724918509758	432.788701679378	539.684545285977	879.870741571201	391.658606421611	601.233494787064	866.740299402674	282.026770354558	554.347085097154	668.147458267349	229.057959057866	527.970586546591	831.116731015517	154.670391828661	568.048451287453	721.158044370719	162.680301494820	600.406153134780	884.519634958592	35.809315504318	592.604925152267	669.821043834800	38.901937647227	387.989380166791	746.621404522110	35.396016068615	309.909235405322	829.737884380054	95.936113371560	339.254949651909	958.674323782417	40.673940047482	315.031096118932	763.997332771679	1111.694750903211	125.960586598418	915.303794313342	897.823595639418	105.810099653242	801.735639564543	1102.053429010476	729.534007164969	839.157017596914	847.720532536100	771.295837990776	
